<svg width="24" height="24" viewBox="0 0 24 24" fill="none" xmlns="http://www.w3.org/2000/svg">
<circle cx="11.9998" cy="11.9998" r="9.00375" stroke="#898989" stroke-width="1.5" stroke-linecap="round" stroke-linejoin="round"/>
<path d="M11.9983 7.99805C13.226 7.99805 14.2212 8.99328 14.2212 10.221C14.2212 11.4487 13.226 12.4439 11.9983 12.4439C10.7706 12.4439 9.77539 11.4487 9.77539 10.221C9.77539 8.99328 10.7706 7.99805 11.9983 7.99805" stroke="#898989" stroke-width="1.5" stroke-linecap="round" stroke-linejoin="round"/>
<path fill-rule="evenodd" clip-rule="evenodd" d="M16.0014 16.4752C13.7913 18.6851 10.2081 18.6851 7.99805 16.4752C8.115 16.1828 8.29541 15.92 8.52627 15.7058C8.91654 15.3435 9.42931 15.1419 9.96186 15.1416H14.0386C14.5708 15.1419 15.0833 15.3435 15.4732 15.7058C15.7046 15.9195 15.8851 16.1824 16.0014 16.4752Z" stroke="#898989" stroke-width="1.5" stroke-linecap="round" stroke-linejoin="round"/>
</svg>
