<svg width="25" height="24" viewBox="0 0 25 24" fill="none" xmlns="http://www.w3.org/2000/svg">
    <path fill-rule="evenodd" clip-rule="evenodd" d="M16.1163 6.63387C15.6281 6.14572 15.6281 5.35428 16.1163 4.86613L17.6163 3.36611C18.1045 2.87796 18.8959 2.87796 19.3841 3.36611L20.8841 4.86613C21.3722 5.35428 21.3722 6.14572 20.8841 6.63387L19.3841 8.13389C18.8959 8.62204 18.1045 8.62204 17.6163 8.13389L16.1163 6.63387Z" stroke="#8A9399" stroke-width="1.5" stroke-linecap="round" stroke-linejoin="round"/>
    <path fill-rule="evenodd" clip-rule="evenodd" d="M12.2315 12.0195C10.0799 9.80755 9.56946 6.47381 10.9606 3.71939C11.0452 3.54573 11.022 3.33886 10.9011 3.18822C10.7802 3.03758 10.5832 2.97021 10.3954 3.01524C8.7379 3.41355 7.2226 4.26177 6.01648 5.46639C2.39686 8.99216 2.32045 14.7845 5.8458 18.4046C9.46563 21.9299 15.2577 21.8541 18.784 18.2352C19.9884 17.0291 20.8367 15.514 21.2355 13.8568C21.2805 13.6689 21.2131 13.4719 21.0625 13.351C20.9119 13.2301 20.705 13.2069 20.5313 13.2915C17.7769 14.6829 14.4428 14.172 12.2315 12.0195Z" stroke="#8A9399" stroke-width="1.5" stroke-linecap="round" stroke-linejoin="round"/>
    </svg>
    