<svg width="73" height="17" viewBox="0 0 73 17" fill="none" xmlns="http://www.w3.org/2000/svg">
    <path d="M10.472 10.832H5.048V17H0.68V0.704H11.264L11.672 4.136H5.048V7.4H10.064L10.472 10.832ZM19.9061 5.912L18.3461 10.352H21.5381L19.9061 5.912ZM22.1621 0.68L28.2581 16.568L23.9621 17L22.7861 13.784H17.1461L16.0181 17H11.6741L17.7941 0.68H22.1621ZM42.0326 3.776L33.7046 13.448L33.5366 13.568H41.5526L41.9606 17H28.9766L28.4966 13.928L36.6326 4.256L36.8246 4.112H29.6006L29.1926 0.68H41.5766L42.0326 3.776ZM43.7009 17V0.68H54.5249L54.9329 4.112H48.0689V7.088H53.0849L53.4929 10.52H48.0689V13.568H55.2449L55.6529 17H43.7009ZM64.0503 4.112H61.6983V8.432H64.0983C64.7703 8.432 65.3223 8.232 65.7543 7.832C66.1863 7.416 66.4023 6.888 66.4023 6.248C66.4023 5.528 66.1943 4.992 65.7783 4.64C65.3623 4.288 64.7863 4.112 64.0503 4.112ZM57.3303 17V0.68H64.1943C66.0023 0.68 67.5703 1.12 68.8983 2C70.2423 2.864 70.9143 4.28 70.9143 6.248C70.9143 7.24 70.7063 8.096 70.2903 8.816C69.8903 9.536 69.3623 10.12 68.7063 10.568L72.3063 17H67.2423L64.6023 11.864H61.6983V17H57.3303Z" fill="#FF5F5F"/>
    </svg>
    