<svg width="24" height="24" viewBox="0 0 24 24" fill="none" xmlns="http://www.w3.org/2000/svg">
<path d="M8.99859 21.0039H4.99693C3.8919 21.0039 2.99609 20.1081 2.99609 19.003V8.49867C2.99609 7.6699 3.66795 6.99805 4.49672 6.99805H18.5026C19.3313 6.99805 20.0032 7.6699 20.0032 8.49867V9.9993" stroke="#FF5F5F" stroke-width="1.5" stroke-linecap="round" stroke-linejoin="round"/>
<path d="M5.99707 3.99679H17.0017" stroke="#FF5F5F" stroke-width="1.5" stroke-linecap="round" stroke-linejoin="round"/>
<path d="M14.8741 19.3613C15.3171 19.8042 15.4496 20.4703 15.2099 21.049C14.9703 21.6277 14.4056 22.0051 13.7792 22.0051C13.1528 22.0051 12.5881 21.6277 12.3484 21.049C12.1087 20.4703 12.2412 19.8042 12.6842 19.3613C13.2892 18.7572 14.2691 18.7572 14.8741 19.3613" stroke="#FF5F5F" stroke-width="1.5" stroke-linecap="round" stroke-linejoin="round"/>
<path d="M20.5509 18.3286C20.9938 18.7714 21.1264 19.4376 20.8867 20.0163C20.647 20.595 20.0823 20.9724 19.4559 20.9724C18.8295 20.9724 18.2648 20.595 18.0251 20.0163C17.7854 19.4376 17.918 18.7714 18.361 18.3286C18.9659 17.7245 19.9459 17.7245 20.5509 18.3286" stroke="#FF5F5F" stroke-width="1.5" stroke-linecap="round" stroke-linejoin="round"/>
<path d="M15.3271 20.4558V15.4778C15.3268 15.0557 15.5842 14.6762 15.9764 14.5204L19.5889 13.0758C19.9067 12.9486 20.2668 12.9874 20.5502 13.1792C20.8336 13.371 21.0034 13.6909 21.0035 14.0332V19.4244" stroke="#FF5F5F" stroke-width="1.5" stroke-linecap="round" stroke-linejoin="round"/>
</svg>
