<svg width="32" height="32" viewBox="0 0 32 32" fill="none" xmlns="http://www.w3.org/2000/svg">
    <path d="M24.6703 16C24.6703 16.3683 24.3717 16.6669 24.0034 16.6669C23.635 16.6669 23.3364 16.3683 23.3364 16C23.3364 15.6316 23.635 15.333 24.0034 15.333C24.3717 15.333 24.6703 15.6316 24.6703 16" stroke="#898989" stroke-width="1.5" stroke-linecap="round" stroke-linejoin="round"/>
    <path d="M16.6669 16C16.6669 16.3683 16.3683 16.6669 16 16.6669C15.6316 16.6669 15.333 16.3683 15.333 16C15.333 15.6316 15.6316 15.333 16 15.333C16.3683 15.333 16.6669 15.6316 16.6669 16" stroke="#898989" stroke-width="1.5" stroke-linecap="round" stroke-linejoin="round"/>
    <path d="M8.66348 16C8.66348 16.3683 8.36488 16.6669 7.99653 16.6669C7.62819 16.6669 7.32959 16.3683 7.32959 16C7.32959 15.6316 7.62819 15.333 7.99653 15.333C8.36488 15.333 8.66348 15.6316 8.66348 16" stroke="#898989" stroke-width="1.5" stroke-linecap="round" stroke-linejoin="round"/>
    </svg>
    