<svg class="h-6" width="30" height="24" viewBox="0 0 30 24" fill="none" xmlns="http://www.w3.org/2000/svg">
						<path class="fill-current" fill-rule="evenodd" clip-rule="evenodd" d="M19.8144 12.1305L13.1305 7.07617V17.1849L19.8144 12.1305Z"></path>
						<path class="fill-current" fill-rule="evenodd" clip-rule="evenodd" d="M30 19.8206H29.5315H29.0631H27.9678L27.9678 4.22509H29.5315V4.22339H30V0H9.7293e-07L8.02003e-07 4.21637H0.467784V4.22509H2.16548L2.16548 19.8206H0.467783V19.8261H1.69206e-07L0 24L30 24V19.8206ZM3.10342 19.8206L3.10342 4.22509L14.6433 4.22509L27.0303 4.22509V19.8206H14.6433L3.10342 19.8206ZM3.87076 21.0239H8.70947V23.0262H3.87076V21.0239ZM17.4192 21.0239H12.5805V23.0262H17.4192V21.0239ZM21.2903 21.0239H26.129V23.0262H21.2903V21.0239ZM8.70947 1.00098H3.87076V3.00327H8.70947V1.00098ZM12.5805 1.00098H17.4192V3.00327H12.5805V1.00098ZM26.129 1.00098H21.2903V3.00327H26.129V1.00098Z"></path>
					</svg>