<svg width="24" height="24" viewBox="0 0 24 24" fill="none" xmlns="http://www.w3.org/2000/svg">
<g id="Group">
<g id="Group_2">
<path id="Path" d="M5 6H19" stroke="#8A9399" stroke-width="1.5" stroke-linecap="round" stroke-linejoin="round"/>
<path id="Path_2" d="M6 3H18" stroke="#8A9399" stroke-width="1.5" stroke-linecap="round" stroke-linejoin="round"/>
<path id="Path_3" d="M14.001 21H5C3.895 21 3 20.105 3 19V11C3 9.895 3.895 9 5 9H19C20.105 9 21 9.895 21 11V14" stroke="#8A9399" stroke-width="1.5" stroke-linecap="round" stroke-linejoin="round"/>
<path id="Path_4" d="M18.994 17H15.006" stroke="#8A9399" stroke-width="1.5" stroke-linecap="round" stroke-linejoin="round"/>
<path id="Path_5" d="M17 18.9939V15.0059" stroke="#8A9399" stroke-width="1.5" stroke-linecap="round" stroke-linejoin="round"/>
<path id="Path_6" d="M12 17C12 14.239 14.239 12 17 12C19.761 12 22 14.239 22 17C22 19.762 19.761 22 17 22C14.239 22 12 19.762 12 17" stroke="#8A9399" stroke-width="1.5" stroke-linecap="round" stroke-linejoin="round"/>
</g>
</g>
</svg>
