<svg width="32" height="32" viewBox="0 0 32 32" fill="none" xmlns="http://www.w3.org/2000/svg">
<path d="M24.6698 16C24.6698 16.3683 24.3712 16.6669 24.0029 16.6669C23.6345 16.6669 23.3359 16.3683 23.3359 16C23.3359 15.6316 23.6345 15.333 24.0029 15.333C24.3712 15.333 24.6698 15.6316 24.6698 16" stroke="#898989" stroke-width="2" stroke-linecap="round" stroke-linejoin="round"/>
<path d="M16.6669 16C16.6669 16.3683 16.3683 16.6669 16 16.6669C15.6316 16.6669 15.333 16.3683 15.333 16C15.333 15.6316 15.6316 15.333 16 15.333C16.3683 15.333 16.6669 15.6316 16.6669 16" stroke="#898989" stroke-width="2" stroke-linecap="round" stroke-linejoin="round"/>
<path d="M8.66299 16C8.66299 16.3683 8.36439 16.6669 7.99605 16.6669C7.6277 16.6669 7.3291 16.3683 7.3291 16C7.3291 15.6316 7.6277 15.333 7.99605 15.333C8.36439 15.333 8.66299 15.6316 8.66299 16" stroke="#898989" stroke-width="2" stroke-linecap="round" stroke-linejoin="round"/>
</svg>
