<svg width="32" height="32" viewBox="0 0 32 32" fill="none" xmlns="http://www.w3.org/2000/svg">
<path fill-rule="evenodd" clip-rule="evenodd" d="M16.6788 7.96559L16 8.65482L15.3211 7.96549C14.0834 6.70808 12.3928 6 10.6284 6C8.86406 6 7.17349 6.70808 5.93577 7.96549V7.96549C3.35474 10.6178 3.35474 14.843 5.93577 17.4953L13.126 24.7962C13.884 25.5663 14.9194 25.9999 16 25.9999C17.0806 25.9999 18.116 25.5663 18.8741 24.7962L26.0642 17.4955C28.6453 14.8431 28.6453 10.618 26.0642 7.96561V7.96561C24.8265 6.70816 23.1359 6.00005 21.3715 6.00004C19.6071 6.00004 17.9165 6.70815 16.6788 7.96559Z" stroke="#898989" stroke-width="1.5" stroke-linecap="round" stroke-linejoin="round"/>
</svg>
