<svg width="24" height="24" viewBox="0 0 24 24" fill="none" xmlns="http://www.w3.org/2000/svg">
<path d="M2 19C2 16.8 3.8 15 6 15H10C12.2 15 14 16.8 14 19" stroke="#898989" stroke-width="1.5" stroke-linecap="round" stroke-linejoin="round"/>
<path d="M10.5007 6.00015C11.9007 7.40015 11.9007 9.60015 10.5007 10.9002C9.10066 12.2002 6.90066 12.3002 5.60066 10.9002C4.30066 9.50015 4.20066 7.40015 5.50066 6.00015C6.80066 4.60015 9.10066 4.70015 10.5007 6.00015" stroke="#898989" stroke-width="1.5" stroke-linecap="round" stroke-linejoin="round"/>
<path d="M16 14H19C20.7 14 22 15.3 22 17" stroke="#898989" stroke-width="1.5" stroke-linecap="round" stroke-linejoin="round"/>
<path d="M19.3009 6.70039C20.3009 7.70039 20.3009 9.30039 19.3009 10.2004C18.3009 11.1004 16.7009 11.2004 15.8009 10.2004C14.9009 9.20039 14.8009 7.60039 15.8009 6.70039C16.7009 5.80039 18.3009 5.80039 19.3009 6.70039" stroke="#898989" stroke-width="1.5" stroke-linecap="round" stroke-linejoin="round"/>
</svg>
